<?xml version="1.0" encoding="UTF-8"?>
<!DOCTYPE svg PUBLIC "-//W3C//DTD SVG 1.1//EN" "http://www.w3.org/Graphics/SVG/1.1/DTD/svg11.dtd">
<svg xmlns="http://www.w3.org/2000/svg" version="1.1" width="2515px" height="2051px" style="shape-rendering:geometricPrecision; text-rendering:geometricPrecision; image-rendering:optimizeQuality; fill-rule:evenodd; clip-rule:evenodd" xmlns:xlink="http://www.w3.org/1999/xlink">
<g><path style="opacity:1" fill="#55bdf4" d="M 2004.5,-0.5 C 2007.5,-0.5 2010.5,-0.5 2013.5,-0.5C 2169.83,156.5 2326.5,313.167 2483.5,469.5C 2482.32,490.869 2475.49,510.202 2463,527.5C 2433.99,557.673 2404.49,587.34 2374.5,616.5C 2205.22,446.887 2035.89,277.221 1866.5,107.5C 1894.66,78.5068 1923.33,50.0068 1952.5,22C 1968.1,10.3637 1985.43,2.86369 2004.5,-0.5 Z"/></g>
<g><path style="opacity:0.999" fill="#57c0f4" d="M 2013.5,-0.5 C 2020.17,-0.5 2026.83,-0.5 2033.5,-0.5C 2054.47,2.81749 2073.14,11.3175 2089.5,25C 2212.33,147.833 2335.17,270.667 2458,393.5C 2465.44,402.719 2471.61,412.719 2476.5,423.5C 2482.08,438.318 2484.41,453.651 2483.5,469.5C 2326.5,313.167 2169.83,156.5 2013.5,-0.5 Z"/></g>
<g><path style="opacity:1" fill="#52baf3" d="M 1866.5,107.5 C 2035.89,277.221 2205.22,446.887 2374.5,616.5C 2353.17,638.5 2331.5,660.167 2309.5,681.5C 2139.21,512.882 1969.55,343.548 1800.5,173.5C 1822.17,151.167 1844.17,129.167 1866.5,107.5 Z"/></g>
<g><path style="opacity:1" fill="#50b7f2" d="M 1800.5,173.5 C 1969.55,343.548 2139.21,512.882 2309.5,681.5C 2279.5,712.167 2249.17,742.5 2218.5,772.5C 2048.92,604.416 1879.75,435.75 1711,266.5C 1710.33,265.833 1710.33,265.167 1711,264.5C 1719.76,256.245 1727.93,247.579 1735.5,238.5C 1756.83,216.5 1778.5,194.833 1800.5,173.5 Z"/></g>
<g><path style="opacity:1" fill="#4cb2f1" d="M 1735.5,238.5 C 1727.93,247.579 1719.76,256.245 1711,264.5C 1710.33,265.167 1710.33,265.833 1711,266.5C 1879.75,435.75 2048.92,604.416 2218.5,772.5C 2173.83,817.833 2128.83,862.833 2083.5,907.5C 1913.21,738.882 1743.55,569.548 1574.5,399.5C 1627.83,345.5 1681.5,291.833 1735.5,238.5 Z"/></g>
<g><path style="opacity:1" fill="#49aff0" d="M 1574.5,399.5 C 1743.55,569.548 1913.21,738.882 2083.5,907.5C 2067.83,923.833 2051.83,939.833 2035.5,955.5C 1865.21,786.882 1695.55,617.548 1526.5,447.5C 1542.17,431.167 1558.17,415.167 1574.5,399.5 Z"/></g>
<g><path style="opacity:0.063" fill="#000000" d="M 2476.5,423.5 C 2509.28,473.836 2519.11,528.503 2506,587.5C 2497.92,619.998 2483.25,648.998 2462,674.5C 2024.25,1113.25 1586.08,1551.75 1147.5,1990C 1088.4,2042.44 1020.4,2058.77 943.5,2039C 915.704,2030.61 890.704,2017.27 868.5,1999C 601.273,1730.77 333.606,1462.77 65.5,1195C 62.804,1194.31 60.6374,1192.81 59,1190.5C 1.31383,1123.05 -11.6862,1047.72 20,964.5C 24.4192,954.653 29.5859,945.32 35.5,936.5C 24.2671,974.059 30.4338,1008.39 54,1039.5C 222.701,1208.37 391.535,1377.03 560.5,1545.5C 682.812,1668.15 805.146,1790.81 927.5,1913.5C 962.09,1945.18 1001.42,1952.68 1045.5,1936C 1054.14,1932.49 1061.81,1927.66 1068.5,1921.5C 1074.13,1917.54 1079.13,1912.87 1083.5,1907.5C 1107.5,1884.17 1131.17,1860.5 1154.5,1836.5C 1178.5,1813.17 1202.17,1789.5 1225.5,1765.5C 1243.17,1748.5 1260.5,1731.17 1277.5,1713.5C 1312.83,1678.83 1347.83,1643.83 1382.5,1608.5C 1422.83,1568.83 1462.83,1528.83 1502.5,1488.5C 1523.83,1467.83 1544.83,1446.83 1565.5,1425.5C 1609.17,1382.5 1652.5,1339.17 1695.5,1295.5C 1704.5,1287.17 1713.17,1278.5 1721.5,1269.5C 1735.17,1256.5 1748.5,1243.17 1761.5,1229.5C 1800.83,1190.83 1839.83,1151.83 1878.5,1112.5C 1882.5,1109.17 1886.17,1105.5 1889.5,1101.5C 1938.5,1053.17 1987.17,1004.5 2035.5,955.5C 2051.83,939.833 2067.83,923.833 2083.5,907.5C 2128.83,862.833 2173.83,817.833 2218.5,772.5C 2249.17,742.5 2279.5,712.167 2309.5,681.5C 2331.5,660.167 2353.17,638.5 2374.5,616.5C 2404.49,587.34 2433.99,557.673 2463,527.5C 2475.49,510.202 2482.32,490.869 2483.5,469.5C 2484.41,453.651 2482.08,438.318 2476.5,423.5 Z"/></g>
<g><path style="opacity:1" fill="#46abef" d="M 1526.5,447.5 C 1695.55,617.548 1865.21,786.882 2035.5,955.5C 1987.17,1004.5 1938.5,1053.17 1889.5,1101.5C 1720.39,933.228 1551.73,764.395 1383.5,595C 1382.91,594.536 1382.24,594.369 1381.5,594.5C 1386.89,589.11 1391.89,583.444 1396.5,577.5C 1439.5,533.833 1482.83,490.5 1526.5,447.5 Z"/></g>
<g><path style="opacity:0.999" fill="#1959bc" d="M 1002.5,970.5 C 1000.57,973.767 998.239,976.767 995.5,979.5C 954.833,1019.5 914.5,1059.83 874.5,1100.5C 839.167,1135.17 804.167,1170.17 769.5,1205.5C 751.833,1222.5 734.5,1239.83 717.5,1257.5C 693.5,1280.83 669.833,1304.5 646.5,1328.5C 622.5,1351.83 598.833,1375.5 575.5,1399.5C 570.127,1403.87 565.461,1408.87 561.5,1414.5C 537.042,1447.34 532.208,1483 547,1521.5C 550.955,1529.92 555.455,1537.92 560.5,1545.5C 391.535,1377.03 222.701,1208.37 54,1039.5C 30.4338,1008.39 24.2671,974.059 35.5,936.5C 40.7895,923.378 47.9562,911.378 57,900.5C 179.167,778.333 301.333,656.167 423.5,534C 457.111,506.576 494.444,500.243 535.5,515C 545.283,519.139 554.283,524.472 562.5,531C 709.035,677.701 855.701,824.201 1002.5,970.5 Z"/></g>
<g><path style="opacity:1" fill="#43a8ee" d="M 1381.5,594.5 C 1382.24,594.369 1382.91,594.536 1383.5,595C 1551.73,764.395 1720.39,933.228 1889.5,1101.5C 1886.17,1105.5 1882.5,1109.17 1878.5,1112.5C 1709.03,943.535 1539.7,774.368 1370.5,605C 1374.04,601.296 1377.7,597.796 1381.5,594.5 Z"/></g>
<g><path style="opacity:1" fill="#42a6ee" d="M 1396.5,577.5 C 1391.89,583.444 1386.89,589.11 1381.5,594.5C 1377.7,597.796 1374.04,601.296 1370.5,605C 1539.7,774.368 1709.03,943.535 1878.5,1112.5C 1839.83,1151.83 1800.83,1190.83 1761.5,1229.5C 1591.21,1060.88 1421.55,891.548 1252.5,721.5C 1300.17,673.167 1348.17,625.167 1396.5,577.5 Z"/></g>
<g><path style="opacity:1" fill="#3fa3ed" d="M 1252.5,721.5 C 1421.55,891.548 1591.21,1060.88 1761.5,1229.5C 1748.5,1243.17 1735.17,1256.5 1721.5,1269.5C 1551.45,1100.45 1382.12,930.785 1213.5,760.5C 1226.17,747.167 1239.17,734.167 1252.5,721.5 Z"/></g>
<g><path style="opacity:1" fill="#3fa2ed" d="M 1213.5,760.5 C 1382.12,930.785 1551.45,1100.45 1721.5,1269.5C 1713.17,1278.5 1704.5,1287.17 1695.5,1295.5C 1527.25,1125.75 1358.42,956.416 1189,787.5C 1188.54,786.906 1188.37,786.239 1188.5,785.5C 1196.5,776.833 1204.83,768.5 1213.5,760.5 Z"/></g>
<g><path style="opacity:1" fill="#3c9fec" d="M 1188.5,785.5 C 1188.37,786.239 1188.54,786.906 1189,787.5C 1358.42,956.416 1527.25,1125.75 1695.5,1295.5C 1652.5,1339.17 1609.17,1382.5 1565.5,1425.5C 1395.92,1257.42 1226.75,1088.75 1058,919.5C 1057.33,918.833 1057.33,918.167 1058,917.5C 1066.76,909.245 1074.93,900.579 1082.5,891.5C 1117.5,855.833 1152.83,820.5 1188.5,785.5 Z"/></g>
<g><path style="opacity:1" fill="#399beb" d="M 1082.5,891.5 C 1074.93,900.579 1066.76,909.245 1058,917.5C 1057.33,918.167 1057.33,918.833 1058,919.5C 1226.75,1088.75 1395.92,1257.42 1565.5,1425.5C 1544.83,1446.83 1523.83,1467.83 1502.5,1488.5C 1333.87,1319.37 1165.03,1150.37 996,981.5C 995.536,980.906 995.369,980.239 995.5,979.5C 998.239,976.767 1000.57,973.767 1002.5,970.5C 1029.17,944.167 1055.83,917.833 1082.5,891.5 Z"/></g>
<g><path style="opacity:1" fill="#3697ea" d="M 995.5,979.5 C 995.369,980.239 995.536,980.906 996,981.5C 1165.03,1150.37 1333.87,1319.37 1502.5,1488.5C 1462.83,1528.83 1422.83,1568.83 1382.5,1608.5C 1212.92,1440.42 1043.75,1271.75 875,1102.5C 874.536,1101.91 874.369,1101.24 874.5,1100.5C 914.5,1059.83 954.833,1019.5 995.5,979.5 Z"/></g>
<g><path style="opacity:1" fill="#3393e9" d="M 874.5,1100.5 C 874.369,1101.24 874.536,1101.91 875,1102.5C 1043.75,1271.75 1212.92,1440.42 1382.5,1608.5C 1347.83,1643.83 1312.83,1678.83 1277.5,1713.5C 1107.92,1545.42 938.749,1376.75 770,1207.5C 769.536,1206.91 769.369,1206.24 769.5,1205.5C 804.167,1170.17 839.167,1135.17 874.5,1100.5 Z"/></g>
<g><path style="opacity:1" fill="#3090e8" d="M 769.5,1205.5 C 769.369,1206.24 769.536,1206.91 770,1207.5C 938.749,1376.75 1107.92,1545.42 1277.5,1713.5C 1260.5,1731.17 1243.17,1748.5 1225.5,1765.5C 1055.92,1597.42 886.749,1428.75 718,1259.5C 717.536,1258.91 717.369,1258.24 717.5,1257.5C 734.5,1239.83 751.833,1222.5 769.5,1205.5 Z"/></g>
<g><path style="opacity:1" fill="#2e8ee7" d="M 717.5,1257.5 C 717.369,1258.24 717.536,1258.91 718,1259.5C 886.749,1428.75 1055.92,1597.42 1225.5,1765.5C 1202.17,1789.5 1178.5,1813.17 1154.5,1836.5C 984.833,1667.5 815.5,1498.17 646.5,1328.5C 669.833,1304.5 693.5,1280.83 717.5,1257.5 Z"/></g>
<g><path style="opacity:1" fill="#2c8be6" d="M 646.5,1328.5 C 815.5,1498.17 984.833,1667.5 1154.5,1836.5C 1131.17,1860.5 1107.5,1884.17 1083.5,1907.5C 913.833,1738.5 744.5,1569.17 575.5,1399.5C 598.833,1375.5 622.5,1351.83 646.5,1328.5 Z"/></g>
<g><path style="opacity:1" fill="#2a89e6" d="M 575.5,1399.5 C 744.5,1569.17 913.833,1738.5 1083.5,1907.5C 1079.13,1912.87 1074.13,1917.54 1068.5,1921.5C 899.249,1753.75 730.416,1585.42 562,1416.5C 561.536,1415.91 561.369,1415.24 561.5,1414.5C 565.461,1408.87 570.127,1403.87 575.5,1399.5 Z"/></g>
<g><path style="opacity:1" fill="#2a88e6" d="M 561.5,1414.5 C 561.369,1415.24 561.536,1415.91 562,1416.5C 730.416,1585.42 899.249,1753.75 1068.5,1921.5C 1061.81,1927.66 1054.14,1932.49 1045.5,1936C 1001.42,1952.68 962.09,1945.18 927.5,1913.5C 805.146,1790.81 682.812,1668.15 560.5,1545.5C 555.455,1537.92 550.955,1529.92 547,1521.5C 532.208,1483 537.042,1447.34 561.5,1414.5 Z"/></g>
</svg>
